# xmcd
#
# Track frame offsets: 
#        150
#        18700
#        30822
#        41687
#        59590
#        76302
#        91280
#        103460
#        115337
#        132012
#
# Disc length: 1930 seconds
#
# Revision: 2
# Processed by: cddbd v1.4PL0 Copyright (c) Steve Scherf et al.
# Submitted via: ExactAudioCopy v0.95a1
#
DISCID=7f07880a
DTITLE=Shelby Lynne - Tough All Over
DYEAR=1990
DGENRE=Country
TTITLE0=I'll Lie Myself To Sleep
TTITLE1=Don't Mind If I Do
TTITLE2=Lonely Weekends
TTITLE3=Things Are Tough All Over
TTITLE4=Dog Day Afternoon
TTITLE5=Baby's Gone Blues
TTITLE6=Till A Better Memory Comes Along
TTITLE7=I Walk The Line
TTITLE8=What About The Love We Made
TTITLE9=Don't Get Around Much Anymore
EXTD=
EXTT0=
EXTT1=
EXTT2=
EXTT3=
EXTT4=
EXTT5=
EXTT6=
EXTT7=
EXTT8=
EXTT9=
PLAYORDER=
